<svg width="104" height="40" viewBox="0 0 104 40" fill="none" xmlns="http://www.w3.org/2000/svg">
<g clip-path="url(#clip0_48539_10887)">
<g clip-path="url(#clip1_48539_10887)">
<path d="M37.7274 13.6389C37.7274 13.6389 49.4525 5.36242 67.8194 5.28488C84.8513 5.21381 87.6658 10.5441 92.8083 12.2563C92.8083 12.2563 90.3094 16.0166 89.0074 18.4782C87.7053 20.9399 80.2481 30.0628 71.5809 32.8281C71.5809 32.8281 83.8846 22.6714 85.7522 15.0151C85.7522 15.0151 68.0824 1.81532 37.5762 13.7746" fill="#F36F21"/>
<path d="M58.2832 5.20763C85.9026 -1.66687 97.4698 11.3844 97.4698 11.3844C94.3912 17.2845 89.8331 22.3166 84.2257 26.0056C91.6434 25.1786 98.5549 17.6063 100.008 15.2222C101.461 12.8381 104.059 9.29745 104.059 9.29745C99.3768 7.21701 95.4246 1.54425 80.4313 0.109914C69.7123 -0.917384 58.3358 5.20118 58.3358 5.20118" fill="#034EA2"/>
<path d="M13.9419 30.3342V20.591C13.8349 19.2347 13.802 17.8738 13.8433 16.5141H13.8038L9.13483 30.1533H6.8924L2.12477 16.5852H2.06559C2.06559 18.0906 2.13135 20.1517 2.12477 20.6427V30.3342H-0.00585938V13.7876H3.15063L8.01033 27.7498H8.05637L12.7714 13.9814H16.0594V30.3342H13.9419Z" fill="#034EA2"/>
<path d="M21.1944 21.9352C21.3325 21.0177 21.6548 19.6351 23.9629 19.6222C25.8963 19.6222 26.8235 20.2683 26.8367 21.5605C26.8498 22.8527 26.2646 22.9302 25.7714 22.9754L22.411 23.3954C19.0375 23.8283 18.7416 26.1478 18.7482 27.1492C18.7482 29.1909 20.3396 30.5735 22.5623 30.5671C23.3921 30.5906 24.2164 30.4284 24.9729 30.0926C25.7295 29.7567 26.3983 29.2562 26.9287 28.6288C27.0077 29.5462 27.2904 30.4508 29.0988 30.4443C29.4785 30.4178 29.8525 30.3395 30.2102 30.2117V28.7515C29.9948 28.8041 29.7744 28.8345 29.5526 28.842C29.1383 28.842 28.895 28.6482 28.895 28.1377L28.8621 21.2891C28.8621 18.2331 25.3308 17.9746 24.3575 17.9746C21.372 17.9746 19.4452 19.1117 19.3597 21.961L21.1944 21.9352ZM26.7315 26.0508C26.7315 27.6532 24.8573 28.8614 22.9568 28.8678C21.4114 28.8678 20.7341 28.1119 20.7275 26.8068C20.7275 25.3078 22.3189 24.9977 23.358 24.8685C25.8963 24.5325 26.4092 24.3645 26.7446 24.1061L26.7315 26.0508Z" fill="#034EA2"/>
<path d="M39.1608 21.5928C39.1608 20.8368 38.8517 19.577 36.241 19.5899C35.5834 19.5899 33.8079 19.8096 33.8079 21.2956C33.8079 22.2841 34.4655 22.5102 36.0437 22.885L38.1086 23.3825C40.6667 23.9898 41.5742 24.9008 41.5742 26.529C41.5742 29.0035 39.5027 30.496 36.7276 30.509C31.8679 30.509 31.5063 27.7889 31.4668 26.3481H33.4396C33.5119 27.2849 33.8013 28.7903 36.7276 28.771C38.2007 28.771 39.5356 28.1959 39.529 26.8327C39.529 25.8829 38.8714 25.5405 37.0827 25.1334L34.6825 24.5649C32.9793 24.1643 31.8482 23.3308 31.8285 21.6832C31.8285 19.0407 34.0578 17.8066 36.4646 17.8066C40.8442 17.8066 41.1796 20.9532 41.1796 21.5411L39.1608 21.5928Z" fill="#034EA2"/>
<path d="M45.8209 21.7737C45.9524 20.8562 46.268 19.4607 48.5828 19.4477C50.4964 19.4477 51.4302 20.1326 51.4302 21.3861C51.4302 22.6395 50.8647 22.7622 50.3715 22.7945L47.0177 23.221C43.6574 23.6409 43.3549 25.9798 43.3614 26.9619C43.3614 29.023 44.9463 30.3927 47.169 30.3927C47.9975 30.4143 48.8203 30.2511 49.5755 29.9154C50.3306 29.5796 50.9985 29.0802 51.5289 28.4544C51.6012 29.3654 51.8774 30.2828 53.6858 30.2635C54.0634 30.2417 54.4356 30.1654 54.7906 30.0373V28.5771C54.5743 28.6262 54.3544 28.6586 54.133 28.674C53.7253 28.674 53.4754 28.4673 53.4754 27.9633V21.1082C53.4754 18.0586 49.9572 17.8066 48.984 17.8066C46.005 17.8066 44.0914 18.9438 44.0125 21.7866L45.8209 21.7737ZM51.3184 25.9669C51.3184 27.5627 49.464 28.7839 47.5438 28.7903C45.9984 28.7903 45.3277 28.0279 45.3145 26.7357C45.3145 25.2239 46.9191 24.9267 47.9449 24.7974C50.4899 24.4679 51.0028 24.2806 51.325 24.0221L51.3184 25.9669Z" fill="#034EA2"/>
<path d="M66.8331 30.147H64.8603V22.7169C64.7748 20.6494 64.1566 19.5962 62.1444 19.6091C60.9804 19.6091 58.9353 20.3522 59.0536 23.5826V30.147H56.923L56.877 18.1554H58.6657V19.874H58.7117C59.1106 19.2538 59.6602 18.7406 60.3111 18.3809C60.9619 18.0211 61.6936 17.8259 62.4403 17.813C64.3539 17.813 66.7673 18.556 66.7805 21.9803L66.8331 30.147Z" fill="#034EA2"/>
<path d="M23.0691 34.114C23.0953 34.1846 23.1108 34.2586 23.1151 34.3337C23.1172 34.3891 23.107 34.4443 23.0855 34.4956C23.0639 34.5468 23.0314 34.593 22.9902 34.6309C22.898 34.7133 22.7793 34.7612 22.6548 34.7665L22.2997 34.6502C22.1024 34.5856 21.938 34.5361 21.8065 34.5016C21.6799 34.4685 21.5495 34.4511 21.4185 34.4499C21.0685 34.4408 20.7263 34.5529 20.4518 34.7665C20.1819 34.9846 19.9736 35.2671 19.8468 35.5871C19.7086 35.9246 19.6307 36.2831 19.6167 36.6467C19.6114 37.1871 19.7377 37.721 19.9849 38.2038C20.1022 38.4366 20.2802 38.6346 20.5009 38.7777C20.7216 38.9207 20.977 39.0036 21.241 39.0179C21.2997 39.0076 21.3598 39.0076 21.4185 39.0179L21.7013 38.9791L21.9446 38.9145L22.1879 38.8176L22.4115 38.7336C22.4932 38.6921 22.5828 38.6679 22.6745 38.6625C22.7269 38.6617 22.7789 38.6723 22.8266 38.6935C22.8744 38.7147 22.9168 38.7461 22.9507 38.7853C23.0269 38.8709 23.0669 38.9818 23.0625 39.0954C23.0651 39.2484 23.0123 39.3973 22.9135 39.5156C22.8148 39.6339 22.6765 39.714 22.5233 39.7415C22.1648 39.8579 21.7895 39.9168 21.4119 39.916C20.8823 39.9279 20.3608 39.7864 19.9126 39.5089C19.4855 39.2381 19.1439 38.8554 18.9262 38.4041C18.6931 37.9304 18.5696 37.4119 18.5645 36.8858C18.5624 36.4647 18.6177 36.0454 18.7289 35.6388C18.8293 35.2609 18.9987 34.9041 19.2287 34.5856C19.4586 34.2748 19.7607 34.0223 20.1099 33.8491C20.5004 33.659 20.9301 33.5595 21.3659 33.5583C21.7419 33.5504 22.1162 33.6095 22.4707 33.7328C22.7094 33.7983 22.9197 33.939 23.0691 34.1334" fill="#034EA2"/>
<path d="M24.8778 36.7307C24.8687 37.2853 25.0118 37.8321 25.2921 38.3136C25.4201 38.5425 25.6117 38.7308 25.8446 38.8567C26.0775 38.9825 26.342 39.0407 26.6073 39.0244C26.9585 39.0352 27.3026 38.9255 27.5805 38.7142C27.8495 38.4982 28.0502 38.2113 28.1592 37.8872C28.2891 37.517 28.3579 37.1287 28.3631 36.7371C28.3673 36.3453 28.3005 35.9559 28.1658 35.5871C28.051 35.2624 27.8488 34.9743 27.5805 34.7536C27.312 34.5437 26.9766 34.4338 26.6336 34.4435C26.2929 34.4349 25.9592 34.5396 25.6866 34.7407C25.4125 34.9534 25.205 35.2378 25.0882 35.5613C24.9483 35.9379 24.8792 36.3363 24.8843 36.7371M23.8388 36.7371C23.829 36.1728 23.9504 35.6138 24.1938 35.1025C24.4114 34.6406 24.7552 34.2469 25.1868 33.9654C25.6216 33.6905 26.1291 33.5475 26.6461 33.5544C27.163 33.5613 27.6665 33.7178 28.0935 34.0042C28.5162 34.2995 28.8501 34.7012 29.0601 35.1671C29.2859 35.6605 29.4004 36.1961 29.3955 36.7371C29.4013 37.2845 29.2869 37.8266 29.0601 38.3266C28.8531 38.7926 28.5184 39.1929 28.0935 39.4831C27.6543 39.7644 27.1414 39.9142 26.6171 39.9142C26.0929 39.9142 25.5799 39.7644 25.1408 39.4831C24.7138 39.1906 24.3771 38.7882 24.1676 38.3201C23.9418 37.8244 23.8274 37.2867 23.8322 36.7436" fill="#034EA2"/>
<path d="M30.5924 34.2559C30.5887 34.1876 30.5989 34.1191 30.6227 34.0548C30.6464 33.9904 30.6831 33.9313 30.7305 33.8812C30.7749 33.8366 30.8282 33.8016 30.887 33.7782C30.9459 33.7549 31.009 33.7438 31.0724 33.7455C31.1368 33.744 31.2009 33.7552 31.2608 33.7785C31.3206 33.8018 31.3751 33.8367 31.421 33.8812C31.4707 33.9313 31.5093 33.9912 31.5342 34.0568C31.5591 34.1225 31.5698 34.1925 31.5657 34.2624V34.3528C31.7607 34.1001 32.0158 33.8982 32.3087 33.7649C32.6025 33.6278 32.9239 33.5572 33.2491 33.5581C33.6226 33.5565 33.9907 33.6453 34.321 33.8166C34.6579 33.9958 34.9343 34.2674 35.1167 34.5983C35.3302 34.9959 35.4345 35.4413 35.4192 35.8905V39.3795C35.4229 39.4445 35.4119 39.5096 35.3868 39.57C35.3618 39.6303 35.3235 39.6844 35.2745 39.7284C35.1783 39.811 35.0538 39.8549 34.926 39.8511C34.8023 39.8542 34.6821 39.8102 34.5906 39.7284C34.5441 39.6843 34.5077 39.6309 34.4839 39.5719C34.4601 39.5128 34.4494 39.4494 34.4525 39.386V35.9229C34.464 35.7234 34.4318 35.5239 34.3581 35.3377C34.2843 35.1516 34.1708 34.9832 34.0251 34.8439C33.7496 34.5893 33.3839 34.4502 33.0058 34.4562C32.7565 34.4538 32.5104 34.5115 32.289 34.6242C32.0627 34.7394 31.8754 34.9167 31.7498 35.1346C31.6085 35.3807 31.5381 35.6598 31.5459 35.9422V39.205C31.5507 39.274 31.5415 39.3431 31.519 39.4086C31.4964 39.474 31.4608 39.5344 31.4144 39.5862C31.3712 39.6306 31.3191 39.6656 31.2613 39.689C31.2036 39.7123 31.1415 39.7236 31.079 39.7219C31.0131 39.7231 30.9477 39.7111 30.8866 39.6866C30.8256 39.6622 30.7702 39.6259 30.7239 39.5798C30.6735 39.5311 30.634 39.4727 30.6079 39.4081C30.5819 39.3436 30.5699 39.2744 30.5727 39.205L30.5924 34.2559Z" fill="#034EA2"/>
<path d="M36.6741 39.2181C36.5919 39.1609 36.5233 39.0868 36.4733 39.0008C36.4234 38.9149 36.3931 38.8192 36.3848 38.7206C36.3847 38.6022 36.432 38.4885 36.5163 38.404C36.5569 38.36 36.6067 38.325 36.6623 38.3016C36.7179 38.2782 36.778 38.2669 36.8385 38.2683C36.9448 38.2719 37.0486 38.3007 37.141 38.3523C37.2703 38.4252 37.3954 38.5051 37.5158 38.5914C37.6166 38.668 37.7244 38.7351 37.8381 38.7917C38.1093 38.9358 38.4111 39.0155 38.7193 39.0243C39.0323 39.0296 39.3419 38.9585 39.6202 38.8175C39.743 38.7595 39.8459 38.6674 39.916 38.5525C39.9861 38.4377 40.0205 38.3052 40.0147 38.1714C40.0125 38.0143 39.9633 37.8614 39.8732 37.7316C39.7832 37.6018 39.6563 37.5008 39.5084 37.4413C39.2159 37.2769 38.9102 37.1365 38.5943 37.0213C38.1559 36.849 37.8161 36.7026 37.575 36.582C37.3217 36.4592 37.0976 36.2853 36.9174 36.0716C36.7278 35.8372 36.6298 35.5438 36.6412 35.2446C36.6399 34.9437 36.7291 34.6493 36.8977 34.3982C37.0767 34.1216 37.3291 33.8982 37.6276 33.7521C37.9643 33.5915 38.332 33.5034 38.7061 33.4937C39.0896 33.4933 39.4701 33.5589 39.8306 33.6875C40.1238 33.7767 40.3964 33.9216 40.6329 34.1139C40.7767 34.235 40.8664 34.4067 40.8828 34.592C40.882 34.6492 40.8694 34.7056 40.8456 34.7579C40.8219 34.8101 40.7875 34.857 40.7447 34.8957C40.6571 34.9828 40.5402 35.0356 40.4159 35.0443C40.2106 34.9795 40.0141 34.8906 39.8306 34.7794C39.5741 34.6372 39.39 34.5339 39.2651 34.4822C39.1219 34.4204 38.9676 34.3875 38.8113 34.3853C38.5127 34.3643 38.2158 34.4441 37.9696 34.6114C37.8811 34.6769 37.8083 34.7605 37.756 34.8565C37.7038 34.9524 37.6734 35.0584 37.6671 35.167C37.7025 35.354 37.7996 35.5243 37.9433 35.6516C38.0947 35.79 38.2679 35.9035 38.4562 35.9876C38.6491 36.0737 38.8837 36.162 39.1599 36.2525C39.436 36.3429 39.6268 36.414 39.732 36.4592C40.1186 36.5893 40.4665 36.8112 40.7447 37.1053C40.9536 37.3663 41.063 37.6909 41.0538 38.0228C41.0439 38.3368 40.9485 38.6425 40.7776 38.908C40.5824 39.1902 40.3116 39.4138 39.995 39.5541C39.5831 39.7404 39.1331 39.831 38.6798 39.819C37.9294 39.8464 37.1949 39.6027 36.6149 39.1341" fill="#034EA2"/>
<path d="M42.0145 34.0559C42.0106 33.9894 42.0209 33.9229 42.0447 33.8606C42.0684 33.7983 42.1052 33.7416 42.1526 33.694C42.1972 33.6498 42.2505 33.615 42.3093 33.5916C42.3681 33.5683 42.4311 33.557 42.4945 33.5583C42.5584 33.5563 42.6221 33.5667 42.6819 33.5889C42.7417 33.6111 42.7964 33.6446 42.8431 33.6876C42.892 33.7343 42.9302 33.7908 42.9551 33.8532C42.98 33.9156 42.9912 33.9824 42.9877 34.0494V37.4414C42.963 37.8721 43.0985 38.297 43.3691 38.6367C43.5136 38.7905 43.6915 38.9105 43.8895 38.9877C44.0876 39.0649 44.3008 39.0973 44.5134 39.0825C45.5568 39.0825 46.0785 38.5376 46.0785 37.4479V34.0752C46.0746 34.0088 46.0849 33.9423 46.1087 33.88C46.1324 33.8177 46.1692 33.761 46.2166 33.7134C46.2604 33.67 46.3127 33.6356 46.3703 33.6123C46.4279 33.589 46.4896 33.5772 46.5519 33.5778C46.6158 33.5757 46.6795 33.5861 46.7393 33.6083C46.7991 33.6304 46.8538 33.664 46.9005 33.7069C46.9494 33.7537 46.9876 33.8101 47.0125 33.8725C47.0374 33.9349 47.0486 34.0018 47.0451 34.0688V37.4931C47.0488 37.9079 46.959 38.3182 46.7821 38.6948C46.6027 39.0687 46.3113 39.3798 45.9469 39.5865C45.5014 39.8299 44.9964 39.9483 44.4871 39.9289C44.0025 39.9468 43.5223 39.8328 43.0995 39.5994C42.7411 39.3924 42.4546 39.0838 42.2775 38.7142C42.099 38.3336 42.0091 37.9186 42.0145 37.4996V34.0559Z" fill="#034EA2"/>
<path d="M48.4064 34.0881C48.4046 34.0243 48.4165 33.9607 48.4414 33.9017C48.4664 33.8427 48.5037 33.7895 48.5511 33.7457C48.6466 33.6562 48.7743 33.6074 48.9062 33.61C48.9682 33.6075 49.03 33.6177 49.0877 33.64C49.1455 33.6622 49.1979 33.696 49.2416 33.7393C49.3368 33.8483 49.3841 33.9901 49.3731 34.1334V34.3272C49.8347 34.3272 49.8821 34.0261 50.4504 33.7457C50.7133 33.616 51.2031 33.5752 51.4972 33.5842C51.8333 33.5972 52.159 33.702 52.4379 33.8869C52.7167 34.0718 52.9375 34.3295 53.0754 34.6309C53.2855 34.2949 53.5769 34.0153 53.9237 33.8168C54.2348 33.6598 54.5802 33.5799 54.9299 33.5842C55.283 33.5894 55.6281 33.6875 55.9294 33.8684C56.2396 34.0582 56.49 34.3289 56.6528 34.6502C56.8398 35.0191 56.9323 35.4272 56.9224 35.8391V39.4443C56.9264 39.5122 56.9155 39.5803 56.8906 39.6438C56.8656 39.7073 56.8272 39.7648 56.7777 39.8126C56.7317 39.8567 56.6771 39.8914 56.6173 39.9147C56.5575 39.938 56.4935 39.9494 56.4292 39.9483C56.3675 39.9474 56.3066 39.9344 56.2501 39.91C56.1936 39.8856 56.1427 39.8502 56.1004 39.8061C56.0525 39.7586 56.0149 39.7021 55.9901 39.6399C55.9652 39.5777 55.9535 39.5111 55.9557 39.4443V35.8649C55.9624 35.594 55.9014 35.3256 55.7782 35.0831C55.674 34.8765 55.5091 34.7055 55.3047 34.5921C55.1028 34.4849 54.8766 34.4294 54.6471 34.4306C54.2841 34.4182 53.9296 34.5404 53.6541 34.773C53.5119 34.9161 53.4029 35.0879 53.3348 35.2764C53.2667 35.4649 53.241 35.6657 53.2595 35.8649V39.4185C53.2632 39.4806 53.252 39.5428 53.2269 39.6C53.2018 39.6572 53.1634 39.7079 53.1149 39.748C53.0168 39.8267 52.893 39.868 52.7663 39.8643C52.646 39.8662 52.529 39.8249 52.4375 39.748C52.3903 39.7082 52.3528 39.6586 52.3277 39.6027C52.3027 39.5467 52.2908 39.486 52.2929 39.4249V35.9747C52.3117 35.7562 52.2846 35.5362 52.2133 35.3284C52.142 35.1206 52.0281 34.9293 51.8786 34.7665C51.7412 34.638 51.5791 34.5375 51.4019 34.471C51.2247 34.4045 51.0358 34.3732 50.8461 34.3789C50.5916 34.3851 50.341 34.4423 50.1096 34.5469C49.8892 34.6504 49.7058 34.8171 49.5836 35.025C49.4423 35.2778 49.3741 35.5638 49.3863 35.852V39.4507C49.3898 39.5187 49.3788 39.5866 49.3538 39.65C49.3289 39.7135 49.2907 39.7711 49.2416 39.819C49.1965 39.8627 49.1431 39.8971 49.0844 39.9204C49.0257 39.9437 48.9629 39.9554 48.8996 39.9547C48.8368 39.9548 48.7747 39.9422 48.717 39.9177C48.6593 39.8933 48.6073 39.8575 48.5643 39.8126C48.516 39.7653 48.4783 39.7088 48.4534 39.6465C48.4285 39.5843 48.417 39.5176 48.4196 39.4507L48.4064 34.0881Z" fill="#034EA2"/>
<path d="M58.8625 36.4206H62.4267C62.4408 35.9232 62.2781 35.4365 61.9664 35.0444C61.8156 34.8717 61.6276 34.7339 61.4161 34.6412C61.2046 34.5485 60.9748 34.5031 60.7432 34.5082C60.5063 34.498 60.2699 34.5377 60.0499 34.6246C59.8298 34.7115 59.6313 34.8436 59.4674 35.0121C59.1239 35.4029 58.939 35.9043 58.948 36.4206M57.9023 36.7243C57.9224 36.2014 58.0476 35.6875 58.2706 35.2124C58.4833 34.7517 58.8141 34.3532 59.2307 34.0559C59.6597 33.7673 60.1674 33.6128 60.6873 33.6128C61.2072 33.6128 61.715 33.7673 62.1439 34.0559C62.5685 34.3471 62.9067 34.744 63.1237 35.2059C63.3522 35.6715 63.4713 36.1815 63.4723 36.6984C63.4723 37.0344 63.2794 37.2024 62.8936 37.2024H58.948C58.9425 37.5685 59.0355 37.9296 59.2176 38.2491C59.3777 38.5267 59.618 38.7515 59.9081 38.8952C60.2067 39.0391 60.5355 39.1122 60.8681 39.1084C61.4949 39.1034 62.0983 38.8736 62.5648 38.4623C62.6768 38.3662 62.8131 38.3014 62.9593 38.2749C63.0116 38.2733 63.0634 38.2843 63.1104 38.3068C63.1574 38.3293 63.1981 38.3627 63.229 38.4041C63.2944 38.4922 63.329 38.5988 63.3276 38.7078C63.3242 38.8464 63.2706 38.9793 63.1763 39.0825C62.8957 39.3616 62.5601 39.5815 62.1899 39.7286C61.7558 39.9114 61.2879 40.0038 60.8156 40C60.3606 40.0077 59.9101 39.9103 59.5004 39.7157C59.1385 39.5392 58.825 39.2799 58.5863 38.9598C58.3575 38.6515 58.186 38.3059 58.0799 37.9389C57.9736 37.5775 57.9161 37.2038 57.9089 36.8276V36.7889" fill="#034EA2"/>
<path d="M64.4979 34.2107C64.4915 34.0708 64.5411 33.934 64.636 33.8295C64.6796 33.7835 64.7326 33.747 64.7915 33.7225C64.8505 33.698 64.914 33.6861 64.978 33.6874C65.0429 33.6863 65.1073 33.6984 65.1673 33.7229C65.2272 33.7473 65.2814 33.7836 65.3265 33.8295C65.3761 33.8811 65.4145 33.9421 65.4394 34.0088C65.4643 34.0754 65.4751 34.1463 65.4712 34.2172V34.7405C65.6192 34.4676 65.8125 34.2208 66.0433 34.0104C66.2404 33.8114 66.5046 33.6897 66.7864 33.668C66.9304 33.6666 67.0694 33.7198 67.1744 33.8166C67.2287 33.8633 67.2721 33.9209 67.3016 33.9856C67.3312 34.0503 67.3461 34.1204 67.3454 34.1913C67.3517 34.2648 67.3394 34.3387 67.3096 34.4063C67.2797 34.474 67.2333 34.5333 67.1744 34.579C67.0216 34.678 66.8525 34.7502 66.6746 34.7922C66.5271 34.8265 66.3837 34.8763 66.2471 34.9408C65.9814 35.1012 65.7666 35.3314 65.6272 35.6054C65.4877 35.8795 65.4291 36.1864 65.458 36.4915V39.5023C65.4673 39.6434 65.4201 39.7825 65.3265 39.8899C65.2834 39.9343 65.2312 39.9693 65.1734 39.9927C65.1157 40.0161 65.0536 40.0273 64.9911 40.0256C64.9252 40.0272 64.8596 40.0153 64.7985 39.9909C64.7374 39.9664 64.6821 39.9299 64.636 39.8835C64.5855 39.8286 64.5467 39.7642 64.5218 39.6943C64.497 39.6244 64.4866 39.5504 64.4913 39.4765L64.4979 34.2107Z" fill="#034EA2"/>
</g>
</g>
<defs>
<clipPath id="clip0_48539_10887">
<rect width="104" height="40" fill="white"/>
</clipPath>
<clipPath id="clip1_48539_10887">
<rect width="104" height="40" fill="white"/>
</clipPath>
</defs>
</svg>
